<svg xmlns="http://www.w3.org/2000/svg" xmlns:xlink="http://www.w3.org/1999/xlink" width="128" zoomAndPan="magnify" viewBox="0 0 96 95.999999" height="128" preserveAspectRatio="xMidYMid meet" version="1.0"><defs><clipPath id="8c25602aff"><path d="M 7.746094 13.949219 L 62.398438 13.949219 L 62.398438 62.398438 L 7.746094 62.398438 Z M 7.746094 13.949219 " clip-rule="nonzero"/></clipPath><clipPath id="12d0576eb7"><path d="M 0.746094 0.949219 L 55.398438 0.949219 L 55.398438 49.398438 L 0.746094 49.398438 Z M 0.746094 0.949219 " clip-rule="nonzero"/></clipPath><clipPath id="7dccc2d77c"><rect x="0" width="56" y="0" height="50"/></clipPath></defs><rect x="-9.6" width="115.2" fill="#ffffff" y="-9.6" height="115.199999" fill-opacity="1"/><rect x="-9.6" width="115.2" fill="#ffffff" y="-9.6" height="115.199999" fill-opacity="1"/><path stroke-linecap="butt" transform="matrix(0.75, 0, 0, 0.75, 0.0000005, 0.000002)" fill-opacity="1" fill="#363d52" fill-rule="nonzero" stroke-linejoin="miter" d="M 16 1.999997 L 112.000005 1.999997 C 112.916672 1.999997 113.82813 2.088539 114.729172 2.270831 C 115.635422 2.447914 116.510422 2.713539 117.35938 3.067706 C 118.208339 3.416664 119.015631 3.848956 119.776047 4.359373 C 120.541672 4.869789 121.250006 5.447914 121.901047 6.098956 C 122.552089 6.749998 123.130214 7.458331 123.640631 8.223956 C 124.151047 8.984373 124.583339 9.791665 124.932298 10.640623 C 125.286464 11.489581 125.552089 12.364581 125.729173 13.270831 C 125.911464 14.171873 126.000006 15.083331 126.000006 15.999998 L 126.000006 112.000003 C 126.000006 112.91667 125.911464 113.828128 125.729173 114.72917 C 125.552089 115.63542 125.286464 116.51042 124.932298 117.359378 C 124.583339 118.208337 124.151047 119.015629 123.640631 119.776045 C 123.130214 120.54167 122.552089 121.250004 121.901047 121.901045 C 121.250006 122.552087 120.541672 123.130212 119.776047 123.640629 C 119.015631 124.151045 118.208339 124.583337 117.35938 124.932296 C 116.510422 125.286462 115.635422 125.552087 114.729172 125.729171 C 113.82813 125.911462 112.916672 126.000004 112.000005 126.000004 L 16 126.000004 C 15.083333 126.000004 14.171875 125.911462 13.270833 125.729171 C 12.364583 125.552087 11.489583 125.286462 10.640625 124.932296 C 9.791667 124.583337 8.984375 124.151045 8.223958 123.640629 C 7.458333 123.130212 6.75 122.552087 6.098958 121.901045 C 5.447916 121.250004 4.869791 120.54167 4.359375 119.776045 C 3.848958 119.015629 3.416666 118.208337 3.067708 117.359378 C 2.713541 116.51042 2.447916 115.63542 2.270833 114.72917 C 2.088541 113.828128 1.999999 112.91667 1.999999 112.000003 L 1.999999 15.999998 C 1.999999 15.083331 2.088541 14.171873 2.270833 13.270831 C 2.447916 12.364581 2.713541 11.489581 3.067708 10.640623 C 3.416666 9.791665 3.848958 8.984373 4.359375 8.223956 C 4.869791 7.458331 5.447916 6.749998 6.098958 6.098956 C 6.75 5.447914 7.458333 4.869789 8.223958 4.359373 C 8.984375 3.848956 9.791667 3.416664 10.640625 3.067706 C 11.489583 2.713539 12.364583 2.447914 13.270833 2.270831 C 14.171875 2.088539 15.083333 1.999997 16 1.999997 Z M 16 1.999997 " stroke="#212532" stroke-width="4" stroke-opacity="1" stroke-miterlimit="4"/><path fill="#ffffff" d="M 17.195312 60.222656 L 17.195312 62.722656 C 37.75 80.597656 58.300781 80.597656 78.855469 62.722656 L 78.855469 60.222656 Z M 17.195312 60.222656 " fill-opacity="1" fill-rule="nonzero"/><path fill="#478cbf" d="M 17.195312 60.222656 L 28.710938 61.28125 C 29.316406 61.332031 29.695312 61.6875 29.84375 62.34375 L 30.148438 67.417969 L 40.148438 68.175781 L 40.753906 63.554688 C 40.855469 63 41.234375 62.621094 41.890625 62.417969 L 54.160156 62.417969 C 54.816406 62.621094 55.195312 63 55.296875 63.554688 L 55.902344 68.175781 L 65.902344 67.417969 L 66.207031 62.34375 C 66.355469 61.6875 66.734375 61.332031 67.339844 61.28125 L 78.855469 60.222656 L 78.855469 41.585938 C 80.371094 39.617188 81.785156 37.570312 83.097656 35.449219 C 81.332031 32.472656 79.234375 29.746094 76.808594 27.269531 C 74.640625 28.28125 72.570312 29.464844 70.597656 30.832031 C 68.578125 28.960938 66.355469 27.347656 63.933594 25.980469 C 64.285156 23.40625 64.488281 20.832031 64.539062 18.253906 C 61.558594 16.839844 58.453125 15.78125 55.222656 15.074219 C 53.910156 17.246094 52.746094 19.492188 51.738281 21.816406 C 49.261719 21.460938 46.789062 21.460938 44.3125 21.816406 C 43.304688 19.492188 42.140625 17.246094 40.828125 15.074219 C 37.597656 15.78125 34.492188 16.839844 31.511719 18.253906 C 31.5625 20.832031 31.765625 23.40625 32.117188 25.980469 C 29.695312 27.347656 27.472656 28.960938 25.453125 30.832031 C 23.484375 29.464844 21.410156 28.28125 19.242188 27.269531 C 16.816406 29.746094 14.722656 32.472656 12.953125 35.449219 C 14.265625 37.570312 15.679688 39.617188 17.195312 41.585938 Z M 17.195312 62.722656 L 17.195312 65.675781 C 17.195312 86.582031 78.78125 86.582031 78.855469 65.675781 L 78.855469 62.722656 L 68.707031 63.628906 L 68.328125 68.855469 C 68.226562 69.363281 67.871094 69.691406 67.265625 69.839844 L 54.996094 70.675781 C 54.386719 70.675781 53.984375 70.398438 53.78125 69.839844 L 53.023438 64.917969 L 43.027344 64.917969 L 42.269531 69.839844 C 42.066406 70.398438 41.664062 70.675781 41.054688 70.675781 L 28.785156 69.839844 C 28.179688 69.691406 27.824219 69.363281 27.722656 68.855469 L 27.347656 63.628906 Z M 17.195312 62.722656 " fill-opacity="1" fill-rule="nonzero"/><path fill="#ffffff" d="M 45.828125 54.691406 C 45.828125 57.265625 50.222656 57.265625 50.222656 54.691406 L 50.222656 48.175781 C 50.222656 45.601562 45.828125 45.601562 45.828125 48.175781 Z M 45.828125 54.691406 " fill-opacity="1" fill-rule="nonzero"/><path fill="#ffffff" d="M 70.976562 49.085938 C 70.976562 49.535156 70.933594 49.976562 70.847656 50.417969 C 70.757812 50.855469 70.628906 51.28125 70.457031 51.695312 C 70.289062 52.109375 70.078125 52.5 69.828125 52.875 C 69.582031 53.246094 69.296875 53.589844 68.980469 53.90625 C 68.664062 54.222656 68.320312 54.503906 67.949219 54.753906 C 67.574219 55.003906 67.183594 55.214844 66.769531 55.382812 C 66.355469 55.554688 65.929688 55.683594 65.492188 55.773438 C 65.050781 55.859375 64.609375 55.902344 64.160156 55.902344 C 63.710938 55.902344 63.269531 55.859375 62.832031 55.773438 C 62.390625 55.683594 61.964844 55.554688 61.550781 55.382812 C 61.136719 55.214844 60.746094 55.003906 60.371094 54.753906 C 60 54.503906 59.65625 54.222656 59.339844 53.90625 C 59.023438 53.589844 58.742188 53.246094 58.492188 52.875 C 58.242188 52.5 58.03125 52.109375 57.863281 51.695312 C 57.691406 51.28125 57.5625 50.855469 57.472656 50.417969 C 57.386719 49.976562 57.34375 49.535156 57.34375 49.085938 C 57.34375 48.636719 57.386719 48.195312 57.472656 47.757812 C 57.5625 47.316406 57.691406 46.890625 57.863281 46.476562 C 58.03125 46.0625 58.242188 45.671875 58.492188 45.296875 C 58.742188 44.925781 59.023438 44.582031 59.339844 44.265625 C 59.65625 43.949219 60 43.667969 60.371094 43.417969 C 60.746094 43.167969 61.136719 42.957031 61.550781 42.789062 C 61.964844 42.617188 62.390625 42.488281 62.832031 42.398438 C 63.269531 42.3125 63.710938 42.269531 64.160156 42.269531 C 64.609375 42.269531 65.050781 42.3125 65.492188 42.398438 C 65.929688 42.488281 66.355469 42.617188 66.769531 42.789062 C 67.183594 42.957031 67.574219 43.167969 67.949219 43.417969 C 68.320312 43.667969 68.664062 43.949219 68.980469 44.265625 C 69.296875 44.582031 69.582031 44.925781 69.828125 45.296875 C 70.078125 45.671875 70.289062 46.0625 70.457031 46.476562 C 70.628906 46.890625 70.757812 47.316406 70.847656 47.757812 C 70.933594 48.195312 70.976562 48.636719 70.976562 49.085938 Z M 70.976562 49.085938 " fill-opacity="1" fill-rule="nonzero"/><path fill="#ffffff" d="M 38.707031 49.085938 C 38.707031 49.535156 38.664062 49.976562 38.578125 50.417969 C 38.488281 50.855469 38.359375 51.28125 38.1875 51.695312 C 38.019531 52.109375 37.808594 52.5 37.558594 52.875 C 37.3125 53.246094 37.027344 53.589844 36.710938 53.90625 C 36.394531 54.222656 36.050781 54.503906 35.679688 54.753906 C 35.304688 55.003906 34.914062 55.214844 34.5 55.382812 C 34.085938 55.554688 33.660156 55.683594 33.222656 55.773438 C 32.78125 55.859375 32.339844 55.902344 31.890625 55.902344 C 31.441406 55.902344 31 55.859375 30.5625 55.773438 C 30.121094 55.683594 29.695312 55.554688 29.28125 55.382812 C 28.867188 55.214844 28.476562 55.003906 28.101562 54.753906 C 27.730469 54.503906 27.386719 54.222656 27.070312 53.90625 C 26.753906 53.589844 26.472656 53.246094 26.222656 52.875 C 25.972656 52.5 25.761719 52.109375 25.59375 51.695312 C 25.421875 51.28125 25.292969 50.855469 25.203125 50.417969 C 25.117188 49.976562 25.074219 49.535156 25.074219 49.085938 C 25.074219 48.636719 25.117188 48.195312 25.203125 47.757812 C 25.292969 47.316406 25.421875 46.890625 25.59375 46.476562 C 25.761719 46.0625 25.972656 45.671875 26.222656 45.296875 C 26.472656 44.925781 26.753906 44.582031 27.070312 44.265625 C 27.386719 43.949219 27.730469 43.667969 28.101562 43.417969 C 28.476562 43.167969 28.867188 42.957031 29.28125 42.789062 C 29.695312 42.617188 30.121094 42.488281 30.5625 42.398438 C 31 42.3125 31.441406 42.269531 31.890625 42.269531 C 32.339844 42.269531 32.78125 42.3125 33.222656 42.398438 C 33.660156 42.488281 34.085938 42.617188 34.5 42.789062 C 34.914062 42.957031 35.304688 43.167969 35.679688 43.417969 C 36.050781 43.667969 36.394531 43.949219 36.710938 44.265625 C 37.027344 44.582031 37.3125 44.925781 37.558594 45.296875 C 37.808594 45.671875 38.019531 46.0625 38.1875 46.476562 C 38.359375 46.890625 38.488281 47.316406 38.578125 47.757812 C 38.664062 48.195312 38.707031 48.636719 38.707031 49.085938 Z M 38.707031 49.085938 " fill-opacity="1" fill-rule="nonzero"/><path fill="#414042" d="M 37.042969 49.539062 C 37.042969 49.839844 37.011719 50.132812 36.953125 50.425781 C 36.894531 50.71875 36.808594 51.003906 36.695312 51.28125 C 36.582031 51.554688 36.441406 51.816406 36.277344 52.066406 C 36.109375 52.3125 35.921875 52.542969 35.710938 52.753906 C 35.5 52.964844 35.269531 53.152344 35.023438 53.320312 C 34.773438 53.484375 34.511719 53.625 34.234375 53.738281 C 33.960938 53.855469 33.675781 53.941406 33.382812 54 C 33.089844 54.054688 32.796875 54.085938 32.496094 54.085938 C 32.199219 54.085938 31.902344 54.054688 31.609375 54 C 31.316406 53.941406 31.03125 53.855469 30.757812 53.738281 C 30.480469 53.625 30.21875 53.484375 29.972656 53.320312 C 29.722656 53.152344 29.492188 52.964844 29.28125 52.753906 C 29.070312 52.542969 28.882812 52.3125 28.71875 52.066406 C 28.550781 51.816406 28.410156 51.554688 28.296875 51.28125 C 28.183594 51.003906 28.097656 50.71875 28.039062 50.425781 C 27.980469 50.132812 27.953125 49.839844 27.953125 49.539062 C 27.953125 49.242188 27.980469 48.945312 28.039062 48.652344 C 28.097656 48.359375 28.183594 48.078125 28.296875 47.800781 C 28.410156 47.527344 28.550781 47.261719 28.71875 47.015625 C 28.882812 46.765625 29.070312 46.539062 29.28125 46.328125 C 29.492188 46.117188 29.722656 45.925781 29.972656 45.761719 C 30.21875 45.59375 30.480469 45.457031 30.757812 45.339844 C 31.03125 45.226562 31.316406 45.140625 31.609375 45.082031 C 31.902344 45.023438 32.199219 44.996094 32.496094 44.996094 C 32.796875 44.996094 33.089844 45.023438 33.382812 45.082031 C 33.675781 45.140625 33.960938 45.226562 34.234375 45.339844 C 34.511719 45.457031 34.773438 45.59375 35.023438 45.761719 C 35.269531 45.925781 35.5 46.117188 35.710938 46.328125 C 35.921875 46.539062 36.109375 46.765625 36.277344 47.015625 C 36.441406 47.261719 36.582031 47.527344 36.695312 47.800781 C 36.808594 48.078125 36.894531 48.359375 36.953125 48.652344 C 37.011719 48.945312 37.042969 49.242188 37.042969 49.539062 Z M 37.042969 49.539062 " fill-opacity="1" fill-rule="nonzero"/><path fill="#414042" d="M 68.097656 49.539062 C 68.097656 49.839844 68.070312 50.132812 68.011719 50.425781 C 67.953125 50.71875 67.867188 51.003906 67.753906 51.28125 C 67.640625 51.554688 67.5 51.816406 67.332031 52.066406 C 67.167969 52.3125 66.980469 52.542969 66.769531 52.753906 C 66.558594 52.964844 66.328125 53.152344 66.078125 53.320312 C 65.832031 53.484375 65.570312 53.625 65.292969 53.738281 C 65.019531 53.855469 64.734375 53.941406 64.441406 54 C 64.148438 54.054688 63.851562 54.085938 63.554688 54.085938 C 63.253906 54.085938 62.960938 54.054688 62.667969 54 C 62.375 53.941406 62.089844 53.855469 61.816406 53.738281 C 61.539062 53.625 61.277344 53.484375 61.027344 53.320312 C 60.78125 53.152344 60.550781 52.964844 60.339844 52.753906 C 60.128906 52.542969 59.941406 52.3125 59.773438 52.066406 C 59.609375 51.816406 59.46875 51.554688 59.355469 51.28125 C 59.242188 51.003906 59.15625 50.71875 59.097656 50.425781 C 59.039062 50.132812 59.007812 49.839844 59.007812 49.539062 C 59.007812 49.242188 59.039062 48.945312 59.097656 48.652344 C 59.15625 48.359375 59.242188 48.078125 59.355469 47.800781 C 59.46875 47.527344 59.609375 47.261719 59.773438 47.015625 C 59.941406 46.765625 60.128906 46.539062 60.339844 46.328125 C 60.550781 46.117188 60.78125 45.925781 61.027344 45.761719 C 61.277344 45.59375 61.539062 45.457031 61.816406 45.339844 C 62.089844 45.226562 62.375 45.140625 62.667969 45.082031 C 62.960938 45.023438 63.253906 44.996094 63.554688 44.996094 C 63.851562 44.996094 64.148438 45.023438 64.441406 45.082031 C 64.734375 45.140625 65.019531 45.226562 65.292969 45.339844 C 65.570312 45.457031 65.832031 45.59375 66.078125 45.761719 C 66.328125 45.925781 66.558594 46.117188 66.769531 46.328125 C 66.980469 46.539062 67.167969 46.765625 67.332031 47.015625 C 67.5 47.261719 67.640625 47.527344 67.753906 47.800781 C 67.867188 48.078125 67.953125 48.359375 68.011719 48.652344 C 68.070312 48.945312 68.097656 49.242188 68.097656 49.539062 Z M 68.097656 49.539062 " fill-opacity="1" fill-rule="nonzero"/><g clip-path="url(#8c25602aff)"><g transform="matrix(1, 0, 0, 1, 7, 13)"><g clip-path="url(#7dccc2d77c)"><g clip-path="url(#12d0576eb7)"><path fill="#007cc2" d="M 0.746094 0.949219 L 55.441406 0.949219 L 55.441406 49.398438 L 0.746094 49.398438 Z M 0.746094 0.949219 " fill-opacity="1" fill-rule="nonzero"/></g></g></g></g></svg>